# xmcd CD database file
#
# Track frame offsets:
#	150
#	1474
#	30545
#	57067
#	81949
#	109781
#	138135
#	161959
#	181493
#	202256
#	232468
#	254000
#	279493
#
# Disc length: 4066 seconds
#
# Revision: 0
# Processed by: cddbd v1.5.1PL0 Copyright (c) Steve Scherf et al.
# Submitted via: CDex 1.50beta10
#
DISCID=bf0fe00d
DTITLE=Baby Jason and the Tablerockers - Shake Your Junk
DYEAR=2004
DGENRE=Blues
TTITLE0=good evening, thanks for coming
TTITLE1=Think
TTITLE2=I'm Ready
TTITLE3=Big Boss Man
TTITLE4=Temperature
TTITLE5=Can't Hold Out
TTITLE6=All Your Love
TTITLE7=Me and My Woman
TTITLE8=When She Was a Girl
TTITLE9=Ball and a Biscuit
TTITLE10=She Belongs to Me
TTITLE11=Thrill is Gone
TTITLE12=Shake For Me
EXTD=YEAR: 2004
EXTT0=
EXTT1=
EXTT2=
EXTT3=
EXTT4=
EXTT5=
EXTT6=
EXTT7=
EXTT8=
EXTT9=
EXTT10=
EXTT11=
EXTT12=
PLAYORDER=
